<svg width="1600" height="960" viewBox="0 0 1600 960" fill="none" xmlns="http://www.w3.org/2000/svg">
  <defs>
    <linearGradient id="bg" x1="96" y1="64" x2="1448" y2="924" gradientUnits="userSpaceOnUse">
      <stop stop-color="#15110F"/>
      <stop offset="0.55" stop-color="#090909"/>
      <stop offset="1" stop-color="#040404"/>
    </linearGradient>
    <radialGradient id="glow" cx="0" cy="0" r="1" gradientUnits="userSpaceOnUse" gradientTransform="translate(1224 180) rotate(120.806) scale(500.251 413.015)">
      <stop stop-color="#FF7A2F" stop-opacity="0.32"/>
      <stop offset="1" stop-color="#FF7A2F" stop-opacity="0"/>
    </radialGradient>
    <pattern id="grid" width="72" height="72" patternUnits="userSpaceOnUse">
      <path d="M72 0H0V72" stroke="white" stroke-opacity="0.08"/>
    </pattern>
  </defs>
  <rect width="1600" height="960" fill="#050505"/>
  <rect width="1600" height="960" fill="url(#bg)"/>
  <rect width="1600" height="960" fill="url(#grid)"/>
  <rect width="1600" height="960" fill="url(#glow)"/>
  <rect x="88" y="92" width="164" height="40" rx="20" fill="#FF5500" fill-opacity="0.12" stroke="#FFAD78" stroke-opacity="0.24"/>
  <text x="120" y="118" fill="#F6C3A2" font-size="22" font-family="Arial, Helvetica, sans-serif" letter-spacing="0.24em">ALLOHA / BLOG</text>
  <text x="112" y="274" fill="#FFF8F3" font-size="84" font-weight="700" font-family="Arial, Helvetica, sans-serif">Primeiro MVP</text>
  <text x="112" y="370" fill="#FFF8F3" font-size="84" font-weight="700" font-family="Arial, Helvetica, sans-serif">sem cron</text>
  <text x="112" y="466" fill="#FFF8F3" font-size="84" font-weight="700" font-family="Arial, Helvetica, sans-serif">como ativar rapido</text>
  <text x="116" y="564" fill="#B4ADA8" font-size="30" font-family="Arial, Helvetica, sans-serif">Primeira carga manual, menos custo fixo e validacao mais rapida.</text>
  <rect x="112" y="642" width="260" height="68" rx="22" fill="#0D0D0D" stroke="white" stroke-opacity="0.12"/>
  <text x="146" y="686" fill="#FFF1E7" font-size="24" font-family="Arial, Helvetica, sans-serif">setup - carga - busca</text>
  <rect x="990" y="218" width="436" height="518" rx="32" fill="white" fill-opacity="0.02" stroke="#FFB06E" stroke-opacity="0.38" stroke-width="4"/>
  <path d="M1068 316H1344" stroke="white" stroke-opacity="0.18" stroke-width="6" stroke-linecap="round"/>
  <path d="M1068 400H1344" stroke="white" stroke-opacity="0.18" stroke-width="6" stroke-linecap="round"/>
  <path d="M1068 484H1344" stroke="white" stroke-opacity="0.18" stroke-width="6" stroke-linecap="round"/>
  <circle cx="1114" cy="316" r="20" fill="#FF5500"/>
  <circle cx="1248" cy="400" r="20" fill="#FF5500"/>
  <circle cx="1366" cy="484" r="20" fill="#FF5500"/>
  <path d="M1114 316L1248 400L1366 484" stroke="#FF9A5D" stroke-width="6" stroke-linecap="round"/>
  <rect x="1036" y="608" width="340" height="70" rx="24" fill="#FF5500" fill-opacity="0.08" stroke="#FFB06E" stroke-opacity="0.55" stroke-width="4"/>
  <text x="1082" y="654" fill="#FFEAD8" font-size="28" font-family="Arial, Helvetica, sans-serif">sem rotina recorrente</text>
</svg>
